# xmcd
#
# Track frame offsets:
#	150
#	18063
#	36193
#	47740
#	63713
#	76010
#	92183
#	102183
#	119995
#	131070
#	143740
#	157695
#	171140
#	189453
#
# Disc length: 2724 seconds
#
# Revision: 0
# Processed by: cddbd v1.5.1PL0 Copyright (c) Steve Scherf et al.
# Submitted via: EasyCDDAExtractor 8.1.2.3
#
DISCID=b60aa20e
DTITLE=Walmir and Wilmar - Confie em Mim
DYEAR=1900
DGENRE=
TTITLE0=Não Vá Embora
TTITLE1=Correnteza de Emoção
TTITLE2=No Remelexo
TTITLE3=Confie em Mim
TTITLE4=Vai e Vem
TTITLE5=Indiferença
TTITLE6=Balaio de Gato
TTITLE7=Quando o Amor é de Verdade
TTITLE8=Campeão de Rodeio
TTITLE9=Morena Cheirosa
TTITLE10=Seu Amor Pegou Na Veia
TTITLE11=Quem Vai Pagar a Conta
TTITLE12=É Amor Demais
TTITLE13=Descarados
EXTD=
EXTT0=
EXTT1=
EXTT2=
EXTT3=
EXTT4=
EXTT5=
EXTT6=
EXTT7=
EXTT8=
EXTT9=
EXTT10=
EXTT11=
EXTT12=
EXTT13=
PLAYORDER=
